<svg version="1.1" baseProfile="full" width="212" height="34" viewBox="0 0 212 34" preserveAspectRatio="xMinYMin meet" xmlns="http://www.w3.org/2000/svg" style="overflow: visible;"><style> :root {--color-text: #FFF;--color-bg: #F61328;--color-link: #FFFF01;--color-primary: #FFFF01;--color-gold: ;--color-silver: ;--color-bronze: ;--color-so-icon: #FA7526; } @keyframes fadeIn {0% {opacity:0;}100% {opacity:1;} } svg {overflow: visible; } .animate {animation: fadeIn .5s forwards;opacity: 0; } text {fill: #FFF;font: 500 12px 'Segoe UI', Ubuntu, Sans-Serif; } .ctn {x: 0;y: 0;fill: var(--color-bg);stroke-width: 2;stroke: var(--color-primary); } :root {--color-so-icon: var(--color-primary); } text {font-weight: 500;font-size: 17px; } .tag {fill: var(--color-link);font-weight: 700; }</style><rect width="212" height="34" class="ctn" rx="5" ry="5"></rect><style> .so-icon {transform: translateX(5px); } .so-icon path {fill: var(--color-so-icon); }</style><g class="so-icon"> <svg aria-hidden="true" width="20px" viewBox="0 0 25 30"><path d="M21 27v-8h3v11H0V19h3v8h18z" fill="#BCBBBB"></path><path d="M17.1.2 15 1.8l7.9 10.6 2.1-1.6L17.1.2zm3.7 14.7L10.6 6.4l1.7-2 10.2 8.5-1.7 2zM7.2 12.3l12 5.6 1.1-2.4-12-5.6-1.1 2.4zm-1.8 6.8 13.56 1.96.17-2.38-13.26-2.55-.47 2.97zM19 25H5v-3h14v3z" fill="#F48024"></path> </svg></g><text class="animate" transform="translate(32,23)"> Top 42% <tspan class="tag">hadoop</tspan> users</text></svg>