<svg version="1.1" baseProfile="full" width="240" height="57" viewBox="0 0 240 55" preserveAspectRatio="xMinYMin meet" xmlns="http://www.w3.org/2000/svg" style="overflow: visible;"><style> :root { --color-text: #EAEAEA; --color-bg: #193649; --color-link: #81C4F8; --color-primary: #DD6386; --color-gold: #FFCC01; --color-silver: #B4B8BC; --color-bronze: #D1A684; --color-so-icon: #674861; } @keyframes fadeIn { 0% {opacity:0;} 100% {opacity:1;} } svg { overflow: visible; } .animate { animation: fadeIn .5s forwards; opacity: 0; } text { fill: #EAEAEA; font: 500 12px 'Segoe UI', Ubuntu, Sans-Serif; } .ctn { x: 0; y: 0; fill: var(--color-bg); stroke-width: 2; stroke: var(--color-primary); } .username {
      font-weight: 500;
      font-size: 16px;
    }</style><rect width="240" height="57" class="ctn" rx="5" ry="5"></rect> <style>.so-icon {
    transform: translateX(195px);
  }
  .so-icon path {
    fill: var(--color-so-icon);
  }</style><g class="so-icon"><svg aria-hidden="true" width="40px" viewBox="0 0 25 30"><path d="M21 27v-8h3v11H0V19h3v8h18z" fill="#BCBBBB"></path><path d="M17.1.2 15 1.8l7.9 10.6 2.1-1.6L17.1.2zm3.7 14.7L10.6 6.4l1.7-2 10.2 8.5-1.7 2zM7.2 12.3l12 5.6 1.1-2.4-12-5.6-1.1 2.4zm-1.8 6.8 13.56 1.96.17-2.38-13.26-2.55-.47 2.97zM19 25H5v-3h14v3z" fill="#F48024"></path></svg></g> <svg x="5" y="5">  <rect id="imageCtn" transform="translate(0,0)" width="47" height="47" rx="5"/><clipPath id="clip"><use href="#imageCtn"/></clipPath><use href="#imageCtn"/><image width="47" height="47" clip-path="url(#clip)" href="https://i.stack.imgur.com/4iGwt.jpg?s&#x3D;128&amp;g&#x3D;1"/>  <g transform="translate(55,20)"><text class="username animate" transform="translate(0,0)">johannchopin</text><g class="animate" transform="translate(0,20)" style="font-weight: 800; animation-delay: 0.1s;"> <style>.reputation {
    font-weight: 600;
    font-size: 14px;
  }
  .badge-count circle {
    cx: 0;
  }</style><text class="reputation">7,386</text><g transform="translate(57, 0)">  <g class="badge-count"><circle cy="-4" r="4" fill="var(--color-gold)"></circle><text x="7">6</text></g>   <g transform="translate(21, 0)" class="badge-count"><circle cy="-4" r="4" fill="var(--color-silver)"></circle><text x="7">22</text></g>   <g transform="translate(51, 0)" class="badge-count"><circle cy="-4" r="4" fill="var(--color-bronze)"></circle><text x="7">62</text></g>  </g> </g></g></svg></svg>